<svg width="900" height="525" xmlns="http://www.w3.org/2000/svg" viewBox="0 -55 900 525" role="img" aria-label="FLY_INTO: counter arc, internal tangent gap, main arc crossing the waypoint aligned with the outbound leg">
  <style>
    text{font-family:system-ui,'Segoe UI',Roboto,Helvetica,Arial,sans-serif;font-size:13px;fill:#3a3d2e}
    .mono{font-family:ui-monospace,'Cascadia Mono',Consolas,monospace;font-size:12px}
    .anno-bad{fill:#c23c2f;font-weight:700}
    .anno-good{fill:#3d7a4a;font-weight:700}
  </style>
  <rect x="0" y="-55" width="900" height="525" fill="#dfe3cc"/>
  <rect x="0.5" y="-54.5" width="899" height="524" fill="none" stroke="#c9ccb8" stroke-width="1"/>
    <line x1="80" y1="140" x2="640" y2="140" stroke="#d61fbe" stroke-width="2"/>
    <line x1="640" y1="140" x2="587.9" y2="435.4" stroke="#d61fbe" stroke-width="2"/>
    <rect x="631" y="131" width="18" height="18" fill="none" stroke="#d61fbe" stroke-width="2"/>
    <text x="662" y="146">WP (Δ = 100°)</text>
    <circle cx="382.6" cy="50" r="90" fill="none" stroke="#2e6fb0" stroke-width="1.4" stroke-dasharray="7 6" opacity="0.75"/>
    <circle cx="551.4" cy="124.4" r="90" fill="none" stroke="#2e6fb0" stroke-width="1.4" stroke-dasharray="7 6" opacity="0.75"/>
    <circle cx="382.6" cy="50" r="3" fill="#2e6fb0"/>
    <circle cx="551.4" cy="124.4" r="3" fill="#2e6fb0"/>
    <line x1="382.6" y1="50" x2="551.4" y2="124.4" stroke="#2e6fb0" stroke-width="1.1" stroke-dasharray="3 4"/>
    <line x1="80" y1="140" x2="350" y2="140" stroke="#6f5546" stroke-width="3"/>
    <path d="M350,140 L382.6,140 A90,90 0 0 0 415.6,133.7" fill="none" stroke="#d07a1f" stroke-width="5" stroke-linecap="round"/>
    <path d="M415.6,133.7 A90,90 0 0 0 455.2,103.3" fill="none" stroke="#6f5546" stroke-width="5" stroke-linecap="round"/>
    <line x1="455.2" y1="103.3" x2="478.8" y2="71.1" stroke="#3d7a4a" stroke-width="5" stroke-linecap="round"/>
    <path d="M478.8,71.1 A90,90 0 0 1 539.5,35.1" fill="none" stroke="#d07a1f" stroke-width="5" stroke-linecap="round"/>
    <path d="M539.5,35.1 A90,90 0 0 1 639.1,104.0" fill="none" stroke="#2e6fb0" stroke-width="5" stroke-linecap="round"/>
    <path d="M639.1,104.0 A90,90 0 0 1 640,140 L613,293" fill="none" stroke="#3d7a4a" stroke-width="5" stroke-linecap="round"/>
    <line x1="382.6" y1="140" x2="382.6" y2="180" stroke="#3a3d2e" stroke-width="1.4"/>
    <text x="270" y="200" class="mono">turn start (scales with the corner)</text>
    <text x="180" y="84" fill="#6f5546">away arc,</text>
    <text x="180" y="104" fill="#6f5546">opposite sense</text>
    <text x="90" y="-25" class="anno-good">short straight:</text>
    <text x="90" y="-5" class="anno-good">room for the bank reversal</text>
    <line x1="300" y1="-12" x2="460" y2="82" stroke="#3d7a4a" stroke-width="1.1"/>
    <text x="700" y="210" class="anno-good">crossing ON the WP,</text>
    <text x="700" y="230" class="anno-good">aligned with the out-leg</text>
  </svg>